<svg width="750" height="750" viewBox="0 0 750 750" fill="white" xmlns="http://www.w3.org/2000/svg">
<g id="tomNookLogo 1">
<g id="Group">
<g id="Group_2">
<path id="logo" d="M413.2 448.7C413.2 461.9 399.5 472.7 382.5 472.7C365.5 472.7 351.8 462 351.8 448.7C351.8 435.5 365.5 424.7 382.5 424.7C399.5 424.8 413.2 435.5 413.2 448.7ZM556.3 389.9C556.3 412.2 555 438.1 537.3 454.3C522.1 468.3 495.5 459.9 479 452.9C408.9 422.8 401.3 400.2 307.8 443C295.8 448.5 283.5 453.5 270.8 457.1C260.9 459.9 248.6 464 238.5 460.8H238.4C226.2 456.8 217 442.6 212.6 431.1C207.6 418.1 206.7 403.8 206.7 390C206.7 331.1 284.9 272.3 381.4 272.3C477.9 272.3 556.3 331 556.3 389.9ZM254 381.4L302.5 346.8L304.4 345.5C297.4 338.6 288.5 334.5 279.5 334.5C259.9 334.5 244 353.8 244 379.5C244 382.5 244.2 385.4 244.6 388.1L254 381.4ZM318.1 379.4C318.1 368.7 314.8 359.1 309.5 351.5L305.2 354.6C306.3 359.1 306.9 363.9 306.9 369C306.9 391.5 294.8 409.8 279.8 409.8C269.8 409.8 261 401.6 256.4 389.4L246.6 396.4C251.8 413.1 264.6 424.3 279.5 424.3C299.1 424.4 318.1 405.1 318.1 379.4ZM521.5 401.9L510.7 393.3C505.4 405.2 496.2 413 486.2 412.4C471.3 411.6 460.1 392.7 461.3 370.2C461.6 365.1 462.4 360.3 463.8 355.9L460 352.9C454.6 360.5 451.3 370.1 451.3 381C451.3 406.7 470.3 426 489.9 426C503.7 426 515.6 416.5 521.5 401.9ZM525.4 381C525.4 355.3 509.5 336 489.9 336C480.9 336 472.1 340 465.1 346.9L466.8 348.3L513.4 385.4L523.9 393.8C524.9 389.8 525.4 385.5 525.4 381ZM117 307.7L139.4 307.2L138.9 409.6L68.2 289.5H25.7L26 309.6L39.9 310.1L42.2 440.3L26.5 440L26.8 465.5L96.5 465.2L96.8 443.6L70 443.1L69.5 344.2L133.6 458.7L166.5 457.9L168.3 306.6L180.1 306.1V287.3L116.3 286.5L117 307.7ZM710.4 452.3L666.9 367.9L709.1 317.5L723 317.2L723.5 291.5H665.9V313.4H678L629.1 373.3L628.6 279.9L580.2 280.2V304.1H598.7L599.5 442.5L582.3 442.2L582.8 467.9L653 467.4L652.2 443L628.5 442.7V414L645.2 393.9L687.4 477.8L724.2 476.3V452.6L710.4 452.3Z" fill="white"/>
</g>
</g>
</g>
</svg>
