<svg width="750" height="750" viewBox="0 0 750 750" fill="none" xmlns="http://www.w3.org/2000/svg">
<g id="tomNookDinero 1">
<g id="Group">
<g id="Group_2">
<path id="dollars" d="M551.8 413.7C549.9 414.9 548 415.9 546.2 416.8L546.1 432.5H531L530.9 422.2C513.1 425.6 502.5 417.5 502.5 417.5L503.2 399.1C503.2 399.1 528.9 404.2 539.2 398.4C549.5 392.5 539.9 386.3 519 384.4C498 382.6 495.5 362 495.5 362C492.7 346.5 503.5 339.2 516.8 335.9L516.7 322.5C517.4 322.5 532.3 322.5 532.3 322.5V333.6C545.2 332.7 556.6 334.1 556.6 334.1L555.1 351.4C535.6 350.3 525.8 347.4 521.6 355.1C516.2 365 550.6 368 558.7 370.9C566.8 373.6 581.9 395.3 551.8 413.7ZM258 374.3C250.5 370.1 216.9 361.7 223.9 352.7C229.3 345.8 238.5 350.2 257.5 354.4L261.7 337.6C261.7 337.6 250.7 334.4 237.8 333.2L239.6 322.2C239.6 322.2 224.9 319.8 224.2 319.7L222.2 333C208.5 334.2 196.7 339.7 197 355.4C197 355.4 196.2 376.1 216.6 381.3C237 386.5 245.4 394.2 234.3 398.3C223.2 402.5 198.6 393.2 198.6 393.2L194.9 411.2C194.9 411.2 204 420.9 222.2 420.4L220.6 430.6L235.5 433L238.1 417.6C240 417 242 416.3 244.1 415.4C276.9 402.3 265.5 378.5 258 374.3Z" fill="white"/>
<path id="caraDinero" d="M593.4 253C593.4 253 563.1 226.3 491.9 199.6C491.9 199.6 496.1 118.9 561.9 143.8C627.8 168.7 629 231.6 593.4 253ZM640.2 564.1C589.9 617.1 501.6 644 377.6 644C248.1 644 157.1 616.6 107.1 562.5C73.3 526 58.5 477.6 63.1 418.7C67.4 363.5 88.6 313.2 124.5 272.6C113.7 266.7 105.9 257.4 100.2 244C92.2 225.2 93.3 201.3 103.1 178.6C115.6 149.6 140 126.7 170 115.6C225.2 95.3 259.7 106.4 278.4 150.6C282.2 159.7 285 170.7 286.2 182.2C314.9 175.9 345.6 172.7 377.5 172.7C406.9 172.7 435.8 176 463.5 182.6C464.8 170.9 467.5 159.7 471.4 150.6C490.1 106.4 524.6 95.3 579.8 115.6C609.8 126.6 634.2 149.6 646.7 178.6C656.5 201.3 657.6 225.2 649.6 244C643.6 258.3 635 267.9 623.1 273.7C662.2 316.4 684.4 367.2 687.3 421.2C690.5 479.7 674.6 527.8 640.2 564.1ZM677.9 421.8C675 368 652.1 317.4 611.6 275.4L606.5 270.1L613.5 267.7C626.4 263.2 634.9 254.8 641 240.5C648 224.1 646.9 203 638.1 182.6C626.6 156 604.2 134.9 576.6 124.8C525.8 106.1 497 115 480.2 154.6C476.1 164.3 473.4 176.5 472.6 189.2L472.2 194.9L466.7 193.5C438.1 186.3 408.2 182.6 377.6 182.6C344.4 182.6 312.6 186.1 283.1 193L277.7 194.3L277.3 188.7C276.4 176.3 273.7 164.2 269.7 154.6C258.5 128.2 241.9 115.4 217 115.4C204.6 115.4 190.2 118.6 173.3 124.8C145.8 134.9 123.4 156 111.8 182.6C103 203 101.9 224.1 108.9 240.5C114.7 254.1 122.4 262.2 134.1 266.9L140.5 269.5L135.8 274.6C98.7 314.4 76.9 364.6 72.6 419.8C68.2 476 82.2 521.9 114.1 556.4C162.2 608.4 250.9 634.8 377.7 634.8C499 634.8 585 608.9 633.4 557.8C665.9 523.2 680.9 477.5 677.9 421.8ZM153.9 253C153.9 253 184.2 226.3 255.4 199.6C255.4 199.6 251.2 118.9 185.4 143.8C119.5 168.7 118.3 231.6 153.9 253ZM376.1 448.8C350.7 448.8 330.1 464.9 330.1 484.7C330.1 504.5 350.7 520.6 376.1 520.6C401.5 520.6 422.1 504.5 422.1 484.7C422.1 464.9 401.5 448.8 376.1 448.8ZM636.3 396.6C636.3 430 634.3 468.8 607.8 493.1C585 514.1 545.2 501.5 520.5 490.9C415.5 445.8 404.2 412 264.1 476.1C246.1 484.3 227.7 491.8 208.7 497.1C193.9 501.3 175.5 507.4 160.4 502.6H160.3C142 496.6 128.3 475.4 121.7 458.2C114.2 438.7 112.9 417.3 112.9 396.6C112.9 308.4 230.1 220.4 374.6 220.4C519.1 220.4 636.3 308.5 636.3 396.6ZM248.6 290.5C219.9 284.5 189.8 308.7 175.9 346.5C171.7 355.7 169.1 366.4 168.8 378.1C164.9 420 183 456.3 212.7 462.6C245.7 469.5 280.5 436.6 290.4 389.1C300.2 341.5 281.5 297.4 248.6 290.5ZM589.4 365.7C580.4 318 546 284.5 512.7 290.8C479.4 297.1 459.7 340.9 468.8 388.5C477.8 436.2 512.2 469.7 545.5 463.4C578.8 457.1 598.5 413.3 589.4 365.7Z" fill="white"/>
</g>
</g>
</g>
</svg>
