<svg width="750" height="750" viewBox="0 0 750 750" fill="none" xmlns="http://www.w3.org/2000/svg">
<g id="tomNookSad 1">
<g id="Group">
<g id="Group_2">
<path id="Carita" d="M704 423.7C701 366.9 677.6 313.3 636.4 268.4C649 262.2 657.9 252.1 664.3 237.1C672.7 217.3 671.6 192.2 661.2 168.2C648 137.7 622.3 113.5 590.7 101.9C532.5 80.5 496.2 92.2 476.5 138.8C472.4 148.4 469.5 160.2 468.2 172.5C439 165.6 408.6 162.1 377.6 162.1C344 162.1 311.7 165.5 281.4 172.1C280.1 160 277.2 148.4 273.1 138.8C253.4 92.2 217.1 80.5 158.9 101.9C127.3 113.5 101.7 137.7 88.4 168.2C78 192.2 76.9 217.3 85.3 237.1C91.3 251.3 99.5 261 110.9 267.2C73.3 310 51 363 46.5 421.1C41.7 483.2 57.2 534.1 92.8 572.6C145.5 629.5 241.3 658.4 377.7 658.4C508.3 658.4 601.4 630.1 654.3 574.2C690.6 535.9 707.3 485.3 704 423.7ZM647 567.3C596 621.1 505.4 648.4 377.7 648.4C244.2 648.4 150.8 620.6 100.1 565.8C66.5 529.5 51.8 481.1 56.4 421.9C61 363.8 84 310.9 123 269L128 263.7L121.2 261C108.9 256.1 100.8 247.5 94.7 233.2C87.4 215.9 88.5 193.6 97.7 172.2C109.8 144.2 133.4 122 162.4 111.3C180.2 104.8 195.4 101.4 208.4 101.4C234.6 101.4 252.1 114.8 263.9 142.7C268.2 152.8 271 165.5 271.9 178.6L272.3 184.5L278 183.2C309.1 175.9 342.6 172.2 377.5 172.2C409.7 172.2 441.2 176.1 471.3 183.7L477.1 185.2L477.5 179.2C478.4 165.9 481.2 153 485.5 142.8C503.2 101.1 533.5 91.7 587 111.4C616 122.1 639.6 144.3 651.7 172.3C661 193.7 662.1 216 654.7 233.3C648.3 248.4 639.4 257.2 625.8 262L618.4 264.6L623.8 270.2C666.4 314.4 690.5 367.8 693.6 424.4C697.2 483 681.4 531.1 647 567.3ZM175.2 131.5C244.6 105.2 249 190.3 249 190.3C174 218.4 142.1 246.6 142.1 246.6C104.6 224 105.8 157.8 175.2 131.5ZM605 246.5C605 246.5 573.1 218.4 498.1 190.2C498.1 190.2 502.5 105.2 571.9 131.4C641.3 157.8 642.5 224 605 246.5ZM424.6 490.6C424.6 511.5 402.9 528.4 376.2 528.4C349.4 528.4 327.8 511.5 327.8 490.6C327.8 469.7 349.5 452.8 376.2 452.8C402.9 452.8 424.6 469.7 424.6 490.6ZM374.6 212.1C222.4 212.1 99 304.9 99 397.8C99 419.6 100.4 442.1 108.3 462.7C115.3 480.8 129.7 503.2 149 509.5H149.1C165 514.6 184.4 508.1 200 503.7C220 498 239.5 490.2 258.4 481.5C405.9 414 417.8 449.6 528.4 497.1C554.4 508.3 596.3 521.5 620.3 499.4C648.1 473.8 650.3 433 650.3 397.8C650.2 304.9 526.8 212.1 374.6 212.1ZM158.7 394.8C158.1 390.4 157.7 385.9 157.7 381.2C157.7 340.6 182.7 310.3 213.6 310.3C227.8 310.3 241.8 316.7 252.9 327.6L249.9 329.7L173.4 384.3L158.7 394.8ZM213.6 452.1C190 452.1 169.9 434.4 161.6 408L177.1 396.9C184.5 416.1 198.3 429.1 214.1 429.1C237.7 429.1 256.8 400.3 256.8 364.7C256.8 356.7 255.8 349 254 342L260.9 337.1C269.3 349 274.5 364.2 274.5 381.1C274.6 421.8 244.5 452.1 213.6 452.1ZM545.5 454.6C514.6 454.6 484.6 424.2 484.6 383.7C484.6 366.6 489.9 351.4 498.4 339.5L504.4 344.2C502.3 351.2 500.9 358.8 500.4 366.8C498.5 402.3 516.1 432.1 539.6 433.4C555.4 434.2 569.9 422 578.2 403.2L595.2 416.8C586 439.7 567.2 454.6 545.5 454.6ZM599.3 403.9L582.7 390.6L509.2 332L506.5 329.9C517.5 319.1 531.4 312.7 545.6 312.7C576.5 312.7 601.5 343.1 601.5 383.6C601.5 390.8 600.7 397.5 599.3 403.9Z" fill="white"/>
</g>
</g>
</g>
</svg>
